<mxfile host="app.diagrams.net" agent="Mozilla/5.0 (Windows NT 10.0; Win64; x64) AppleWebKit/537.36 (KHTML, like Gecko) Chrome/132.0.0.0 Safari/537.36" version="26.0.11">
  <diagram id="C5RBs43oDa-KdzZeNtuy" name="Page-1">
    <mxGraphModel dx="1468" dy="911" grid="1" gridSize="10" guides="1" tooltips="1" connect="1" arrows="1" fold="1" page="1" pageScale="1" pageWidth="827" pageHeight="1169" math="0" shadow="0">
      <root>
        <mxCell id="WIyWlLk6GJQsqaUBKTNV-0" />
        <mxCell id="WIyWlLk6GJQsqaUBKTNV-1" parent="WIyWlLk6GJQsqaUBKTNV-0" />
        <mxCell id="WIyWlLk6GJQsqaUBKTNV-2" value="" style="rounded=0;html=1;jettySize=auto;orthogonalLoop=1;fontSize=11;endArrow=classic;endFill=1;strokeWidth=1;shadow=0;labelBackgroundColor=none;edgeStyle=orthogonalEdgeStyle;exitX=0.5;exitY=1;exitDx=0;exitDy=0;" parent="WIyWlLk6GJQsqaUBKTNV-1" source="e0IcmRbNhsJ9LbPKQhqD-0" target="WIyWlLk6GJQsqaUBKTNV-6" edge="1">
          <mxGeometry relative="1" as="geometry">
            <mxPoint x="169" y="207" as="sourcePoint" />
          </mxGeometry>
        </mxCell>
        <mxCell id="e0IcmRbNhsJ9LbPKQhqD-6" style="edgeStyle=orthogonalEdgeStyle;rounded=0;orthogonalLoop=1;jettySize=auto;html=1;exitX=0.5;exitY=1;exitDx=0;exitDy=0;entryX=0.5;entryY=0;entryDx=0;entryDy=0;" parent="WIyWlLk6GJQsqaUBKTNV-1" source="WIyWlLk6GJQsqaUBKTNV-6" edge="1">
          <mxGeometry relative="1" as="geometry">
            <mxPoint x="179" y="380" as="targetPoint" />
          </mxGeometry>
        </mxCell>
        <mxCell id="e0IcmRbNhsJ9LbPKQhqD-21" style="edgeStyle=orthogonalEdgeStyle;rounded=0;orthogonalLoop=1;jettySize=auto;html=1;exitX=1;exitY=0.5;exitDx=0;exitDy=0;entryX=0.5;entryY=0;entryDx=0;entryDy=0;" parent="WIyWlLk6GJQsqaUBKTNV-1" source="WIyWlLk6GJQsqaUBKTNV-6" target="e0IcmRbNhsJ9LbPKQhqD-20" edge="1">
          <mxGeometry relative="1" as="geometry" />
        </mxCell>
        <mxCell id="WIyWlLk6GJQsqaUBKTNV-6" value="Is inputNumber a number?" style="rhombus;whiteSpace=wrap;html=1;shadow=0;fontFamily=Helvetica;fontSize=12;align=center;strokeWidth=1;spacing=6;spacingTop=-4;" parent="WIyWlLk6GJQsqaUBKTNV-1" vertex="1">
          <mxGeometry x="129" y="250" width="100" height="80" as="geometry" />
        </mxCell>
        <mxCell id="e0IcmRbNhsJ9LbPKQhqD-0" value="Input number for choose the option" style="shape=parallelogram;perimeter=parallelogramPerimeter;whiteSpace=wrap;html=1;fixedSize=1;" parent="WIyWlLk6GJQsqaUBKTNV-1" vertex="1">
          <mxGeometry x="119" y="147" width="120" height="60" as="geometry" />
        </mxCell>
        <mxCell id="e0IcmRbNhsJ9LbPKQhqD-9" style="edgeStyle=orthogonalEdgeStyle;rounded=0;orthogonalLoop=1;jettySize=auto;html=1;exitX=0.5;exitY=1;exitDx=0;exitDy=0;entryX=0.5;entryY=0;entryDx=0;entryDy=0;" parent="WIyWlLk6GJQsqaUBKTNV-1" source="e0IcmRbNhsJ9LbPKQhqD-2" target="e0IcmRbNhsJ9LbPKQhqD-0" edge="1">
          <mxGeometry relative="1" as="geometry" />
        </mxCell>
        <mxCell id="e0IcmRbNhsJ9LbPKQhqD-2" value="Start" style="rounded=1;whiteSpace=wrap;html=1;arcSize=50;" parent="WIyWlLk6GJQsqaUBKTNV-1" vertex="1">
          <mxGeometry x="119" y="80" width="120" height="30" as="geometry" />
        </mxCell>
        <mxCell id="e0IcmRbNhsJ9LbPKQhqD-4" value="End" style="rounded=1;whiteSpace=wrap;html=1;arcSize=50;" parent="WIyWlLk6GJQsqaUBKTNV-1" vertex="1">
          <mxGeometry x="119" y="930" width="120" height="30" as="geometry" />
        </mxCell>
        <mxCell id="e0IcmRbNhsJ9LbPKQhqD-7" value="Yes" style="text;html=1;align=center;verticalAlign=middle;resizable=0;points=[];autosize=1;strokeColor=none;fillColor=none;" parent="WIyWlLk6GJQsqaUBKTNV-1" vertex="1">
          <mxGeometry x="169" y="338" width="40" height="30" as="geometry" />
        </mxCell>
        <mxCell id="CQwbwxp5en_i5ur888Y7-19" style="edgeStyle=orthogonalEdgeStyle;rounded=0;orthogonalLoop=1;jettySize=auto;html=1;exitX=0.5;exitY=1;exitDx=0;exitDy=0;entryX=0.5;entryY=0;entryDx=0;entryDy=0;" edge="1" parent="WIyWlLk6GJQsqaUBKTNV-1" source="e0IcmRbNhsJ9LbPKQhqD-8" target="CQwbwxp5en_i5ur888Y7-0">
          <mxGeometry relative="1" as="geometry" />
        </mxCell>
        <mxCell id="CQwbwxp5en_i5ur888Y7-26" style="edgeStyle=orthogonalEdgeStyle;rounded=0;orthogonalLoop=1;jettySize=auto;html=1;exitX=1;exitY=0.5;exitDx=0;exitDy=0;entryX=0.5;entryY=0;entryDx=0;entryDy=0;" edge="1" parent="WIyWlLk6GJQsqaUBKTNV-1" source="e0IcmRbNhsJ9LbPKQhqD-8" target="e0IcmRbNhsJ9LbPKQhqD-11">
          <mxGeometry relative="1" as="geometry" />
        </mxCell>
        <mxCell id="e0IcmRbNhsJ9LbPKQhqD-8" value="inputNumber&lt;div&gt;== 1?&lt;/div&gt;" style="rhombus;whiteSpace=wrap;html=1;shadow=0;fontFamily=Helvetica;fontSize=12;align=center;strokeWidth=1;spacing=6;spacingTop=-4;" parent="WIyWlLk6GJQsqaUBKTNV-1" vertex="1">
          <mxGeometry x="129" y="380" width="100" height="80" as="geometry" />
        </mxCell>
        <mxCell id="CQwbwxp5en_i5ur888Y7-37" style="edgeStyle=orthogonalEdgeStyle;rounded=0;orthogonalLoop=1;jettySize=auto;html=1;exitX=0.5;exitY=1;exitDx=0;exitDy=0;" edge="1" parent="WIyWlLk6GJQsqaUBKTNV-1" source="e0IcmRbNhsJ9LbPKQhqD-10">
          <mxGeometry relative="1" as="geometry">
            <mxPoint x="309" y="910" as="targetPoint" />
          </mxGeometry>
        </mxCell>
        <mxCell id="e0IcmRbNhsJ9LbPKQhqD-10" value="Evening tasks" style="shape=parallelogram;perimeter=parallelogramPerimeter;whiteSpace=wrap;html=1;fixedSize=1;" parent="WIyWlLk6GJQsqaUBKTNV-1" vertex="1">
          <mxGeometry x="249" y="785" width="120" height="60" as="geometry" />
        </mxCell>
        <mxCell id="CQwbwxp5en_i5ur888Y7-31" style="edgeStyle=orthogonalEdgeStyle;rounded=0;orthogonalLoop=1;jettySize=auto;html=1;exitX=0.5;exitY=1;exitDx=0;exitDy=0;entryX=0.5;entryY=0;entryDx=0;entryDy=0;" edge="1" parent="WIyWlLk6GJQsqaUBKTNV-1" source="e0IcmRbNhsJ9LbPKQhqD-11" target="CQwbwxp5en_i5ur888Y7-27">
          <mxGeometry relative="1" as="geometry" />
        </mxCell>
        <mxCell id="CQwbwxp5en_i5ur888Y7-40" style="edgeStyle=orthogonalEdgeStyle;rounded=0;orthogonalLoop=1;jettySize=auto;html=1;exitX=1;exitY=0.5;exitDx=0;exitDy=0;" edge="1" parent="WIyWlLk6GJQsqaUBKTNV-1" source="e0IcmRbNhsJ9LbPKQhqD-11" target="CQwbwxp5en_i5ur888Y7-39">
          <mxGeometry relative="1" as="geometry" />
        </mxCell>
        <mxCell id="e0IcmRbNhsJ9LbPKQhqD-11" value="inputNumber&amp;nbsp;&lt;div&gt;== 2?&lt;/div&gt;" style="rhombus;whiteSpace=wrap;html=1;shadow=0;fontFamily=Helvetica;fontSize=12;align=center;strokeWidth=1;spacing=6;spacingTop=-4;" parent="WIyWlLk6GJQsqaUBKTNV-1" vertex="1">
          <mxGeometry x="493" y="460" width="100" height="80" as="geometry" />
        </mxCell>
        <mxCell id="e0IcmRbNhsJ9LbPKQhqD-26" style="edgeStyle=orthogonalEdgeStyle;rounded=0;orthogonalLoop=1;jettySize=auto;html=1;exitX=0.5;exitY=1;exitDx=0;exitDy=0;entryX=0.5;entryY=0;entryDx=0;entryDy=0;" parent="WIyWlLk6GJQsqaUBKTNV-1" source="e0IcmRbNhsJ9LbPKQhqD-16" target="e0IcmRbNhsJ9LbPKQhqD-4" edge="1">
          <mxGeometry relative="1" as="geometry" />
        </mxCell>
        <mxCell id="e0IcmRbNhsJ9LbPKQhqD-16" value="Go sleep!" style="shape=parallelogram;perimeter=parallelogramPerimeter;whiteSpace=wrap;html=1;fixedSize=1;" parent="WIyWlLk6GJQsqaUBKTNV-1" vertex="1">
          <mxGeometry x="119" y="840" width="120" height="60" as="geometry" />
        </mxCell>
        <mxCell id="e0IcmRbNhsJ9LbPKQhqD-40" style="edgeStyle=orthogonalEdgeStyle;rounded=0;orthogonalLoop=1;jettySize=auto;html=1;exitX=0.5;exitY=1;exitDx=0;exitDy=0;" parent="WIyWlLk6GJQsqaUBKTNV-1" source="e0IcmRbNhsJ9LbPKQhqD-20" edge="1">
          <mxGeometry relative="1" as="geometry">
            <mxPoint x="179" y="130" as="targetPoint" />
            <Array as="points">
              <mxPoint x="289" y="390" />
              <mxPoint x="369" y="390" />
              <mxPoint x="369" y="130" />
            </Array>
          </mxGeometry>
        </mxCell>
        <mxCell id="e0IcmRbNhsJ9LbPKQhqD-20" value="Try again" style="shape=parallelogram;perimeter=parallelogramPerimeter;whiteSpace=wrap;html=1;fixedSize=1;" parent="WIyWlLk6GJQsqaUBKTNV-1" vertex="1">
          <mxGeometry x="229" y="320" width="120" height="60" as="geometry" />
        </mxCell>
        <mxCell id="e0IcmRbNhsJ9LbPKQhqD-34" value="No" style="text;html=1;align=center;verticalAlign=middle;resizable=0;points=[];autosize=1;strokeColor=none;fillColor=none;" parent="WIyWlLk6GJQsqaUBKTNV-1" vertex="1">
          <mxGeometry x="179" y="580" width="40" height="30" as="geometry" />
        </mxCell>
        <mxCell id="e0IcmRbNhsJ9LbPKQhqD-36" value="No" style="text;html=1;align=center;verticalAlign=middle;resizable=0;points=[];autosize=1;strokeColor=none;fillColor=none;" parent="WIyWlLk6GJQsqaUBKTNV-1" vertex="1">
          <mxGeometry x="239" y="257" width="40" height="30" as="geometry" />
        </mxCell>
        <mxCell id="e0IcmRbNhsJ9LbPKQhqD-37" value="Yes" style="text;html=1;align=center;verticalAlign=middle;resizable=0;points=[];autosize=1;strokeColor=none;fillColor=none;" parent="WIyWlLk6GJQsqaUBKTNV-1" vertex="1">
          <mxGeometry x="239" y="740" width="40" height="30" as="geometry" />
        </mxCell>
        <mxCell id="e0IcmRbNhsJ9LbPKQhqD-38" value="Yes" style="text;html=1;align=center;verticalAlign=middle;resizable=0;points=[];autosize=1;strokeColor=none;fillColor=none;" parent="WIyWlLk6GJQsqaUBKTNV-1" vertex="1">
          <mxGeometry x="189" y="460" width="40" height="30" as="geometry" />
        </mxCell>
        <mxCell id="CQwbwxp5en_i5ur888Y7-20" style="edgeStyle=orthogonalEdgeStyle;rounded=0;orthogonalLoop=1;jettySize=auto;html=1;exitX=0.5;exitY=1;exitDx=0;exitDy=0;entryX=0.5;entryY=0;entryDx=0;entryDy=0;" edge="1" parent="WIyWlLk6GJQsqaUBKTNV-1" source="CQwbwxp5en_i5ur888Y7-0" target="CQwbwxp5en_i5ur888Y7-1">
          <mxGeometry relative="1" as="geometry" />
        </mxCell>
        <mxCell id="CQwbwxp5en_i5ur888Y7-32" style="edgeStyle=orthogonalEdgeStyle;rounded=0;orthogonalLoop=1;jettySize=auto;html=1;exitX=1;exitY=0.5;exitDx=0;exitDy=0;entryX=0.5;entryY=0;entryDx=0;entryDy=0;" edge="1" parent="WIyWlLk6GJQsqaUBKTNV-1" source="CQwbwxp5en_i5ur888Y7-0" target="CQwbwxp5en_i5ur888Y7-13">
          <mxGeometry relative="1" as="geometry" />
        </mxCell>
        <mxCell id="CQwbwxp5en_i5ur888Y7-0" value="is currentTime&amp;nbsp;&lt;div&gt;&amp;gt; 6 &amp;lt;= 12&lt;/div&gt;" style="rhombus;whiteSpace=wrap;html=1;shadow=0;fontFamily=Helvetica;fontSize=12;align=center;strokeWidth=1;spacing=6;spacingTop=-4;" vertex="1" parent="WIyWlLk6GJQsqaUBKTNV-1">
          <mxGeometry x="129" y="500" width="100" height="80" as="geometry" />
        </mxCell>
        <mxCell id="CQwbwxp5en_i5ur888Y7-21" style="edgeStyle=orthogonalEdgeStyle;rounded=0;orthogonalLoop=1;jettySize=auto;html=1;exitX=0.5;exitY=1;exitDx=0;exitDy=0;" edge="1" parent="WIyWlLk6GJQsqaUBKTNV-1" source="CQwbwxp5en_i5ur888Y7-1" target="CQwbwxp5en_i5ur888Y7-2">
          <mxGeometry relative="1" as="geometry" />
        </mxCell>
        <mxCell id="CQwbwxp5en_i5ur888Y7-34" style="edgeStyle=orthogonalEdgeStyle;rounded=0;orthogonalLoop=1;jettySize=auto;html=1;exitX=1;exitY=0.5;exitDx=0;exitDy=0;entryX=0.5;entryY=0;entryDx=0;entryDy=0;" edge="1" parent="WIyWlLk6GJQsqaUBKTNV-1" source="CQwbwxp5en_i5ur888Y7-1" target="CQwbwxp5en_i5ur888Y7-10">
          <mxGeometry relative="1" as="geometry" />
        </mxCell>
        <mxCell id="CQwbwxp5en_i5ur888Y7-1" value="is currentTime&amp;nbsp;&lt;div&gt;&amp;gt; 12 &amp;lt;= 16&lt;/div&gt;" style="rhombus;whiteSpace=wrap;html=1;shadow=0;fontFamily=Helvetica;fontSize=12;align=center;strokeWidth=1;spacing=6;spacingTop=-4;" vertex="1" parent="WIyWlLk6GJQsqaUBKTNV-1">
          <mxGeometry x="129" y="625" width="100" height="80" as="geometry" />
        </mxCell>
        <mxCell id="CQwbwxp5en_i5ur888Y7-22" style="edgeStyle=orthogonalEdgeStyle;rounded=0;orthogonalLoop=1;jettySize=auto;html=1;exitX=0.5;exitY=1;exitDx=0;exitDy=0;entryX=0.5;entryY=0;entryDx=0;entryDy=0;" edge="1" parent="WIyWlLk6GJQsqaUBKTNV-1" source="CQwbwxp5en_i5ur888Y7-2" target="e0IcmRbNhsJ9LbPKQhqD-16">
          <mxGeometry relative="1" as="geometry" />
        </mxCell>
        <mxCell id="CQwbwxp5en_i5ur888Y7-38" style="edgeStyle=orthogonalEdgeStyle;rounded=0;orthogonalLoop=1;jettySize=auto;html=1;exitX=1;exitY=0.5;exitDx=0;exitDy=0;entryX=0.5;entryY=0;entryDx=0;entryDy=0;" edge="1" parent="WIyWlLk6GJQsqaUBKTNV-1" source="CQwbwxp5en_i5ur888Y7-2" target="e0IcmRbNhsJ9LbPKQhqD-10">
          <mxGeometry relative="1" as="geometry">
            <Array as="points">
              <mxPoint x="309" y="770" />
            </Array>
          </mxGeometry>
        </mxCell>
        <mxCell id="CQwbwxp5en_i5ur888Y7-2" value="is currentTime&amp;nbsp;&lt;div&gt;&amp;gt; 16 &amp;lt;= 22&lt;/div&gt;" style="rhombus;whiteSpace=wrap;html=1;shadow=0;fontFamily=Helvetica;fontSize=12;align=center;strokeWidth=1;spacing=6;spacingTop=-4;" vertex="1" parent="WIyWlLk6GJQsqaUBKTNV-1">
          <mxGeometry x="129" y="730" width="100" height="80" as="geometry" />
        </mxCell>
        <mxCell id="CQwbwxp5en_i5ur888Y7-35" style="edgeStyle=orthogonalEdgeStyle;rounded=0;orthogonalLoop=1;jettySize=auto;html=1;exitX=0.5;exitY=1;exitDx=0;exitDy=0;" edge="1" parent="WIyWlLk6GJQsqaUBKTNV-1" source="CQwbwxp5en_i5ur888Y7-10">
          <mxGeometry relative="1" as="geometry">
            <mxPoint x="379" y="910" as="targetPoint" />
          </mxGeometry>
        </mxCell>
        <mxCell id="CQwbwxp5en_i5ur888Y7-10" value="Afternoon tasks" style="shape=parallelogram;perimeter=parallelogramPerimeter;whiteSpace=wrap;html=1;fixedSize=1;" vertex="1" parent="WIyWlLk6GJQsqaUBKTNV-1">
          <mxGeometry x="319" y="685" width="120" height="60" as="geometry" />
        </mxCell>
        <mxCell id="CQwbwxp5en_i5ur888Y7-36" style="edgeStyle=orthogonalEdgeStyle;rounded=0;orthogonalLoop=1;jettySize=auto;html=1;exitX=0.5;exitY=1;exitDx=0;exitDy=0;" edge="1" parent="WIyWlLk6GJQsqaUBKTNV-1" source="CQwbwxp5en_i5ur888Y7-13">
          <mxGeometry relative="1" as="geometry">
            <mxPoint x="449" y="910" as="targetPoint" />
          </mxGeometry>
        </mxCell>
        <mxCell id="CQwbwxp5en_i5ur888Y7-13" value="Morning tasks" style="shape=parallelogram;perimeter=parallelogramPerimeter;whiteSpace=wrap;html=1;fixedSize=1;" vertex="1" parent="WIyWlLk6GJQsqaUBKTNV-1">
          <mxGeometry x="389" y="580" width="120" height="60" as="geometry" />
        </mxCell>
        <mxCell id="CQwbwxp5en_i5ur888Y7-15" value="Yes" style="text;html=1;align=center;verticalAlign=middle;resizable=0;points=[];autosize=1;strokeColor=none;fillColor=none;" vertex="1" parent="WIyWlLk6GJQsqaUBKTNV-1">
          <mxGeometry x="239" y="640" width="40" height="30" as="geometry" />
        </mxCell>
        <mxCell id="CQwbwxp5en_i5ur888Y7-16" value="Yes" style="text;html=1;align=center;verticalAlign=middle;resizable=0;points=[];autosize=1;strokeColor=none;fillColor=none;" vertex="1" parent="WIyWlLk6GJQsqaUBKTNV-1">
          <mxGeometry x="229" y="390" width="40" height="30" as="geometry" />
        </mxCell>
        <mxCell id="CQwbwxp5en_i5ur888Y7-23" value="No" style="text;html=1;align=center;verticalAlign=middle;resizable=0;points=[];autosize=1;strokeColor=none;fillColor=none;" vertex="1" parent="WIyWlLk6GJQsqaUBKTNV-1">
          <mxGeometry x="179" y="700" width="40" height="30" as="geometry" />
        </mxCell>
        <mxCell id="CQwbwxp5en_i5ur888Y7-24" value="No" style="text;html=1;align=center;verticalAlign=middle;resizable=0;points=[];autosize=1;strokeColor=none;fillColor=none;" vertex="1" parent="WIyWlLk6GJQsqaUBKTNV-1">
          <mxGeometry x="189" y="800" width="40" height="30" as="geometry" />
        </mxCell>
        <mxCell id="CQwbwxp5en_i5ur888Y7-25" value="Yes" style="text;html=1;align=center;verticalAlign=middle;resizable=0;points=[];autosize=1;strokeColor=none;fillColor=none;" vertex="1" parent="WIyWlLk6GJQsqaUBKTNV-1">
          <mxGeometry x="239" y="520" width="40" height="30" as="geometry" />
        </mxCell>
        <mxCell id="CQwbwxp5en_i5ur888Y7-30" style="edgeStyle=orthogonalEdgeStyle;rounded=0;orthogonalLoop=1;jettySize=auto;html=1;exitX=0.5;exitY=1;exitDx=0;exitDy=0;" edge="1" parent="WIyWlLk6GJQsqaUBKTNV-1" source="CQwbwxp5en_i5ur888Y7-27">
          <mxGeometry relative="1" as="geometry">
            <mxPoint x="179" y="910" as="targetPoint" />
            <Array as="points">
              <mxPoint x="543" y="910" />
            </Array>
          </mxGeometry>
        </mxCell>
        <mxCell id="CQwbwxp5en_i5ur888Y7-27" value="All tasks" style="shape=parallelogram;perimeter=parallelogramPerimeter;whiteSpace=wrap;html=1;fixedSize=1;" vertex="1" parent="WIyWlLk6GJQsqaUBKTNV-1">
          <mxGeometry x="483" y="830" width="120" height="60" as="geometry" />
        </mxCell>
        <mxCell id="CQwbwxp5en_i5ur888Y7-41" style="edgeStyle=orthogonalEdgeStyle;rounded=0;orthogonalLoop=1;jettySize=auto;html=1;exitX=0.5;exitY=1;exitDx=0;exitDy=0;" edge="1" parent="WIyWlLk6GJQsqaUBKTNV-1" source="CQwbwxp5en_i5ur888Y7-39">
          <mxGeometry relative="1" as="geometry">
            <mxPoint x="181" y="130" as="targetPoint" />
            <Array as="points">
              <mxPoint x="639" y="610" />
              <mxPoint x="719" y="610" />
              <mxPoint x="719" y="130" />
            </Array>
          </mxGeometry>
        </mxCell>
        <mxCell id="CQwbwxp5en_i5ur888Y7-39" value="Try again" style="shape=parallelogram;perimeter=parallelogramPerimeter;whiteSpace=wrap;html=1;fixedSize=1;" vertex="1" parent="WIyWlLk6GJQsqaUBKTNV-1">
          <mxGeometry x="579" y="520" width="120" height="60" as="geometry" />
        </mxCell>
      </root>
    </mxGraphModel>
  </diagram>
</mxfile>
